<?xml version="1.0" standalone="no"?>
<!DOCTYPE svg PUBLIC "-//W3C//DTD SVG 20010904//EN"
 "http://www.w3.org/TR/2001/REC-SVG-20010904/DTD/svg10.dtd">
<svg version="1.0" xmlns="http://www.w3.org/2000/svg"
 width="128.000000pt" height="128.000000pt" viewBox="0 0 128.000000 128.000000"
 preserveAspectRatio="xMidYMid meet">
<metadata>
Created by potrace 1.14, written by Peter Selinger 2001-2017
</metadata>
<g transform="translate(0.000000,128.000000) scale(0.100000,-0.100000)"
fill="#000000" stroke="none">
<path d="M505 1234 c-197 -47 -371 -208 -435 -404 -107 -322 92 -685 421 -769
211 -54 425 4 579 159 126 125 181 265 175 445 -3 95 -4 102 -30 180 -63 185
-241 347 -431 391 -58 13 -219 12 -279 -2z m332 -248 l198 -114 3 -230 2 -229
-50 -31 c-28 -18 -52 -32 -54 -32 -1 0 -65 -36 -142 -80 -76 -44 -145 -80
-153 -80 -21 0 -351 189 -378 217 -22 22 -23 27 -23 237 0 230 1 234 54 257
12 5 93 51 181 103 88 52 161 95 162 95 1 1 91 -50 200 -113z"/>
<path d="M625 902 c-20 -89 -88 -286 -133 -385 -35 -76 -33 -89 14 -126 20
-16 36 -20 58 -16 17 4 40 8 51 10 11 2 53 4 93 4 83 1 89 7 72 70 -11 41 -11
41 -53 36 -23 -2 -53 -7 -67 -10 -63 -15 -70 -15 -70 -3 0 7 38 106 84 220
l83 207 -31 29 c-17 16 -43 32 -58 36 -25 6 -26 4 -43 -72z"/>
</g>
</svg>
